<svg width="20" height="25" viewBox="0 0 20 25" fill="none" xmlns="http://www.w3.org/2000/svg">
<path d="M10 24.9806L1.52875 18.6275C1.24833 18.4223 1.0276 18.1586 0.866562 17.8366C0.705521 17.5145 0.625 17.1755 0.625 16.8197V2.38469C0.625 1.75323 0.84375 1.21875 1.28125 0.78125C1.71875 0.34375 2.25323 0.125 2.88469 0.125H17.1153C17.7468 0.125 18.2812 0.34375 18.7188 0.78125C19.1562 1.21875 19.375 1.75323 19.375 2.38469V16.8197C19.375 17.1755 19.2945 17.5145 19.1334 17.8366C18.9724 18.1586 18.7517 18.4223 18.4713 18.6275L10 24.9806ZM10 22.625L17.3438 17.1203C17.3919 17.0801 17.4299 17.034 17.4578 16.9819C17.4859 16.9298 17.5 16.8718 17.5 16.8078V2.38469C17.5 2.28844 17.4599 2.20031 17.3797 2.12031C17.2997 2.0401 17.2116 2 17.1153 2H2.88469C2.78844 2 2.70031 2.0401 2.62031 2.12031C2.5401 2.20031 2.5 2.28844 2.5 2.38469V16.8078C2.5 16.8718 2.51406 16.9298 2.54219 16.9819C2.5701 17.034 2.60812 17.0801 2.65625 17.1203L10 22.625ZM8.6875 15.3172L15.3172 8.6875L14 7.33187L8.6875 12.6444L6.03844 9.99531L4.68281 11.3125L8.6875 15.3172Z" fill="#273E4B"/>
</svg>
