<svg width="23" height="24" viewBox="0 0 23 24" fill="none" xmlns="http://www.w3.org/2000/svg">
<path d="M4.14437 23.875C3.23625 23.875 2.46427 23.5595 1.82844 22.9284C1.19281 22.2974 0.875 21.5311 0.875 20.6297V3.39437C0.875 2.48625 1.19281 1.71427 1.82844 1.07844C2.46427 0.442813 3.23625 0.125 4.14437 0.125H17.5097V19.2597H4.14437C3.75813 19.2597 3.42917 19.3907 3.1575 19.6528C2.88583 19.9151 2.75 20.2401 2.75 20.6278C2.75 21.0153 2.88583 21.3409 3.1575 21.6047C3.42917 21.8682 3.75813 22 4.14437 22H20.25V2.625H22.125V23.875H4.14437ZM7.36531 17.3847H15.6347V2H7.36531V17.3847ZM5.49031 17.3847V2H4.14437C3.74917 2 3.41802 2.13583 3.15094 2.4075C2.88365 2.67917 2.75 3.00813 2.75 3.39437V17.7475C2.96625 17.645 3.18729 17.5589 3.41313 17.4891C3.63896 17.4195 3.88271 17.3847 4.14437 17.3847H5.49031Z" fill="white"/>
</svg>
