<svg width="20" height="19" viewBox="0 0 20 19" fill="none" xmlns="http://www.w3.org/2000/svg">
<path d="M14 8.8845C14.2448 8.8845 14.4535 8.79833 14.626 8.626C14.7983 8.4535 14.8845 8.24483 14.8845 8C14.8845 7.75517 14.7983 7.5465 14.626 7.374C14.4535 7.20167 14.2448 7.1155 14 7.1155C13.7552 7.1155 13.5465 7.20167 13.374 7.374C13.2017 7.5465 13.1155 7.75517 13.1155 8C13.1155 8.24483 13.2017 8.4535 13.374 8.626C13.5465 8.79833 13.7552 8.8845 14 8.8845ZM6 6.75H11V5.25H6V6.75ZM2.875 18.5C2.34683 16.6768 1.819 14.8628 1.2915 13.0577C0.763833 11.2526 0.5 9.4 0.5 7.5C0.5 6.10767 0.98525 4.92625 1.95575 3.95575C2.92625 2.98525 4.10767 2.5 5.5 2.5H10.75C11.2077 1.89867 11.7568 1.415 12.3973 1.049C13.0376 0.683001 13.7385 0.5 14.5 0.5C14.7757 0.5 15.0113 0.59775 15.2068 0.79325C15.4023 0.98875 15.5 1.22433 15.5 1.5C15.5 1.568 15.4907 1.63592 15.472 1.70375C15.4535 1.77175 15.434 1.83458 15.4135 1.89225C15.3212 2.13325 15.2426 2.38008 15.1777 2.63275C15.1131 2.88525 15.0577 3.14033 15.0115 3.398L17.6135 6H19.5V12.1095L16.771 13.0058L15.125 18.5H10.5V16.5H7.5V18.5H2.875ZM4 17H6V15H12V17H14L15.55 11.85L18 11.025V7.5H17L13.5 4C13.5 3.66667 13.5208 3.34583 13.5625 3.0375C13.6042 2.72917 13.6731 2.41983 13.7693 2.1095C13.2859 2.24283 12.8641 2.47525 12.5038 2.80675C12.1436 3.13808 11.8673 3.53583 11.675 4H5.5C4.53333 4 3.70833 4.34167 3.025 5.025C2.34167 5.70833 2 6.53333 2 7.5C2 9.13333 2.225 10.7292 2.675 12.2875C3.125 13.8458 3.56667 15.4167 4 17Z" fill="#273E4B"/>
</svg>
