<svg width="19" height="24" viewBox="0 0 19 24" fill="none" xmlns="http://www.w3.org/2000/svg">
<path d="M8.1875 16.0047L14.8172 9.37497L13.4806 8.03841L8.1875 13.3318L5.53844 10.6828L4.20187 12.0193L8.1875 16.0047ZM9.5 23.8509C6.79646 23.1136 4.55813 21.5223 2.785 19.0768C1.01167 16.6314 0.125 13.8975 0.125 10.875V3.68278L9.5 0.173096L18.875 3.68278V10.875C18.875 13.8975 17.9883 16.6314 16.215 19.0768C14.4419 21.5223 12.2035 23.1136 9.5 23.8509ZM9.5 21.875C11.6667 21.1875 13.4583 19.8125 14.875 17.75C16.2917 15.6875 17 13.3958 17 10.875V4.96872L9.5 2.1681L2 4.96872V10.875C2 13.3958 2.70833 15.6875 4.125 17.75C5.54167 19.8125 7.33333 21.1875 9.5 21.875Z" fill="white"/>
</svg>
